<svg width="34" height="34" viewBox="0 0 34 34" fill="none" xmlns="http://www.w3.org/2000/svg">
<path d="M26.4111 20.4065L24.7443 24.1199M26.4111 20.4065H22.2521M26.4111 20.4065C27.4638 18.0609 27.9903 16.8882 27.6642 15.8214C27.6334 15.72 27.5969 15.6206 27.5553 15.5235C27.1175 14.5027 25.9822 14.0108 23.7114 13.0271L19.7748 11.3217C18.2789 10.6736 17.531 10.3496 16.7439 10.3496C15.9568 10.3496 15.2089 10.6736 13.713 11.3217L9.77648 13.0271C7.50569 14.0108 6.3703 14.5027 5.93254 15.5235C5.89094 15.6206 5.85456 15.72 5.82357 15.8214C5.4976 16.8882 6.02399 18.0609 7.07675 20.4065M7.07675 20.4065L8.7435 24.1199M7.07675 20.4065H11.2358" stroke="white" stroke-width="2.06555" stroke-linecap="round" stroke-linejoin="round"/>
<path d="M25.0061 13.1039V11.7269C25.0061 9.13032 25.0061 7.83204 24.1994 7.0254C23.3927 6.21875 22.0945 6.21875 19.498 6.21875H13.9898C11.3933 6.21875 10.095 6.21875 9.28834 7.0254C8.48169 7.83204 8.48169 9.13032 8.48169 11.7269V13.1039" stroke="white" stroke-width="2.06555" stroke-linecap="round" stroke-linejoin="round"/>
<path d="M16.7439 6.21891V3.46484" stroke="white" stroke-width="2.06555" stroke-linecap="round" stroke-linejoin="round"/>
<path d="M2.97351 29.895C3.91711 31.3424 5.13688 31.3424 6.10349 29.895C9.21126 25.141 12.1715 33.3145 14.3657 29.9486C17.7119 24.9049 20.1187 33.6524 22.6279 29.895C25.9 24.8895 27.9384 33.1784 30.5142 30.4334" stroke="white" stroke-width="2.06555" stroke-linecap="round"/>
</svg>
