<svg width="34" height="34" viewBox="0 0 34 34" fill="none" xmlns="http://www.w3.org/2000/svg">
<path d="M20.5487 13.1047C20.5487 15.006 19.0074 16.5473 17.1062 16.5473C15.2049 16.5473 13.6636 15.006 13.6636 13.1047C13.6636 11.2034 15.2049 9.66211 17.1062 9.66211C19.0074 9.66211 20.5487 11.2034 20.5487 13.1047Z" stroke="white" stroke-width="2.06555"/>
<path d="M18.8377 24.8C18.3733 25.2473 17.7525 25.4974 17.1065 25.4974C16.4604 25.4974 15.8397 25.2473 15.3752 24.8C11.1221 20.6789 5.42241 16.075 8.20198 9.39122C9.70486 5.77732 13.3125 3.46484 17.1065 3.46484C20.9005 3.46484 24.5081 5.77734 26.011 9.39122C28.7871 16.0666 23.1013 20.693 18.8377 24.8Z" stroke="white" stroke-width="2.06555"/>
<path d="M25.3684 28.252C25.3684 29.773 21.6693 31.006 17.1062 31.006C12.5431 31.006 8.84399 29.773 8.84399 28.252" stroke="white" stroke-width="2.06555" stroke-linecap="round"/>
</svg>
