<svg width="34" height="34" viewBox="0 0 34 34" fill="none" xmlns="http://www.w3.org/2000/svg">
<path d="M26.7455 16.7441H13.8579C12.5139 16.7441 11.1644 17.9146 10.0542 18.546C9.58209 18.8145 9.34601 18.9488 9.12921 18.9069C8.91241 18.8649 8.6866 18.6031 8.23499 18.0796C7.28952 16.9833 6.26699 16.7441 4.71297 16.7441C3.95246 16.7441 3.33594 17.4634 3.33594 18.3507V24.7768C3.33594 25.6641 3.95246 26.3834 4.71297 26.3834C6.26701 26.3834 7.28952 26.1442 8.23499 25.0479C8.6866 24.5244 8.91241 24.2626 9.12921 24.2206C9.34601 24.1787 9.58209 24.313 10.0542 24.5815C11.1644 25.2129 12.5139 26.3834 13.8579 26.3834H26.7455C29.0271 26.3834 30.8766 24.2256 30.8766 21.5638C30.8766 18.902 29.0271 16.7441 26.7455 16.7441Z" stroke="white" stroke-width="2.06555" stroke-linecap="round" stroke-linejoin="round"/>
<path d="M15.0408 16.7444L15.8111 15.0417C16.3444 13.8626 16.6111 13.2731 17.1224 12.9432C17.6337 12.6133 18.2808 12.6133 19.5749 12.6133H20.1458C21.44 12.6133 22.087 12.6133 22.5983 12.9432C23.1096 13.2731 23.3764 13.8626 23.9097 15.0417L24.68 16.7444" stroke="white" stroke-width="2.06555" stroke-linecap="round" stroke-linejoin="round"/>
<path d="M19.8604 12.6127V7.10457C19.8604 6.34406 20.4768 5.72754 21.2374 5.72754H22.6144" stroke="white" stroke-width="2.06555" stroke-linecap="round" stroke-linejoin="round"/>
</svg>
