<svg width="34" height="34" viewBox="0 0 34 34" fill="none" xmlns="http://www.w3.org/2000/svg">
<path d="M18.9907 27.7601C18.9907 27.7601 20.3678 27.7601 21.7448 30.5141C21.7448 30.5141 26.1189 23.629 30.007 22.252" stroke="white" stroke-width="2.06555" stroke-linecap="round" stroke-linejoin="round"/>
<path d="M10.0399 22.2524H15.548M10.0399 15.3672H21.0562" stroke="white" stroke-width="2.06555" stroke-linecap="round"/>
<path d="M9.35153 5.03906C7.20914 5.10333 5.93182 5.34179 5.04798 6.22644C3.83801 7.43754 3.83801 9.38677 3.83801 13.2852V22.2443C3.83801 26.1428 3.83801 28.092 5.04798 29.3031C6.25795 30.5142 8.20538 30.5142 12.1002 30.5142H15.5428M21.7341 5.03906C23.8765 5.10333 25.1538 5.34179 26.0376 6.22645C27.2476 7.43754 27.2476 9.38677 27.2476 13.2852V18.8094" stroke="white" stroke-width="2.06555" stroke-linecap="round"/>
<path d="M9.34607 5.38344C9.34607 4.05254 10.425 2.97363 11.7559 2.97363H19.3296C20.6605 2.97363 21.7394 4.05254 21.7394 5.38344C21.7394 6.71434 20.6605 7.79325 19.3296 7.79325H11.7559C10.425 7.79325 9.34607 6.71434 9.34607 5.38344Z" stroke="white" stroke-width="2.06555" stroke-linejoin="round"/>
</svg>
